<svg viewBox="0 0 475 545" xmlns="http://www.w3.org/2000/svg">
  <path d="M466.383 137.073 259.914 17.8696C253.284 14.0409 245.103 14.0409 238.473 17.8696L32.0144 137.073C26.441 140.291 23 146.242 23 152.688V393.063C23 399.499 26.441 405.46 32.0144 408.678L238.483 527.881C245.113 531.71 253.294 531.71 259.924 527.881L466.392 408.678C471.966 405.46 475.407 399.508 475.407 393.063V152.688C475.407 146.252 471.966 140.291 466.392 137.073ZM453.414 162.323 254.098 507.546C252.751 509.872 249.194 508.922 249.194 506.227V280.179C249.194 275.662 246.78 271.484 242.864 269.216L47.1063 156.197C44.78 154.85 45.7299 151.292 48.4245 151.292H447.055C452.716 151.292 456.254 157.428 453.423 162.333H453.414Z" fill="#FFFFFF"/>
</svg>
